<svg xmlns="http://www.w3.org/2000/svg" xmlns:xlink="http://www.w3.org/1999/xlink" width="200" zoomAndPan="magnify" viewBox="0 0 150 60" height="80" preserveAspectRatio="xMidYMid meet" version="1.0"><defs><g/></defs><path fill="#ffffff" d="M 44.523438 23.875 C 44.226562 24.332031 43.828125 23.972656 44.082031 23.566406 C 53.484375 8.71875 59.382812 28.863281 78.285156 27.171875 C 107.386719 24.566406 131.714844 16.257812 149.824219 23.414062 C 151.085938 23.910156 150.195312 24.957031 149.132812 24.46875 C 134.0625 17.542969 106.066406 24.796875 78.160156 27.734375 C 59.25 29.722656 53.902344 9.265625 44.523438 23.875 Z M 44.523438 23.875 " fill-opacity="1" fill-rule="nonzero"/><g fill="#ffffff" fill-opacity="1"><g transform="translate(9.388943, 31.266623)"><g><path d="M 20.605469 -7.964844 C 20.605469 -8.132812 20.132812 -8.167969 20.03125 -8 C 18.402344 -5.625 16.199219 -4.066406 11.285156 -3.796875 C 12.507812 -7.050781 12.539062 -11.863281 9.898438 -12.539062 C 8.644531 -12.878906 5.289062 -11.625 1.558594 -4.339844 C 1.796875 -6.066406 2.066406 -8.304688 2.339844 -10.101562 C 2.40625 -11.285156 0.136719 -10.675781 -0.101562 -8.8125 C -0.710938 -3.898438 -0.847656 -0.644531 -1.085938 0.40625 C -7.015625 9.523438 -9.691406 21.996094 -5.390625 21.757812 C -1.289062 21.523438 0.472656 10.8125 1.523438 -3.117188 C 5.289062 -10.84375 8.472656 -12.234375 9.660156 -12.101562 C 10.878906 -11.964844 10.777344 -7.320312 9.082031 -3.898438 C 4.8125 -3.898438 3.289062 -0.238281 4.675781 0.949219 C 6.507812 2.507812 9.558594 0.339844 11.117188 -3.289062 C 15.726562 -3.421875 18.707031 -4.847656 20.605469 -7.964844 Z M -1.015625 1.085938 C -1.660156 9.691406 -2.472656 21.113281 -5.558594 21.386719 C -8.371094 21.011719 -7.117188 11.421875 -1.015625 1.085938 Z M 4.914062 0.644531 C 4.066406 -0.167969 5.082031 -3.355469 8.949219 -3.421875 C 7.523438 -0.0351562 5.421875 1.117188 4.914062 0.644531 Z M 4.914062 0.644531 "/></g></g></g><g fill="#ffffff" fill-opacity="1"><g transform="translate(29.385548, 31.266623)"><g><path d="M 2.882812 8.539062 C 7.320312 7.59375 7.558594 2.882812 5.863281 -1.015625 C 8.335938 -2 12.203125 -3.863281 15.117188 -7.929688 C 15.285156 -8.167969 14.878906 -8.304688 14.472656 -7.964844 C 12.234375 -4.710938 8.539062 -2.542969 5.660156 -1.421875 C 4.269531 -4.269531 3.117188 -5.929688 1.933594 -8.167969 C 0.371094 -11.082031 1.898438 -13.21875 4.066406 -13.792969 C 6.03125 -14.300781 7.898438 -11.726562 6 -9.285156 L 6.644531 -9.285156 C 8.371094 -11.863281 6.710938 -14.609375 4.035156 -14.300781 C 0.609375 -13.929688 -1.558594 -10.878906 0.472656 -6.777344 C 1.558594 -4.609375 3.1875 -1.863281 3.964844 -0.472656 C -3.660156 2.101562 -1.761719 9.523438 2.882812 8.539062 Z M 3.117188 8 C -1.015625 9.421875 -3.117188 2.574219 4.136719 -0.0664062 C 5.695312 3.660156 4.777344 7.421875 3.117188 8 Z M 3.117188 8 "/></g></g></g><g fill="#ffffff" fill-opacity="1"><g transform="translate(50.611257, 41.103675)"><g><path d="M 2.125 -5.15625 C 2.6875 -5.15625 3.125 -5.015625 3.4375 -4.734375 C 3.757812 -4.453125 3.921875 -4.0625 3.921875 -3.5625 C 3.921875 -3.269531 3.863281 -3 3.75 -2.75 C 3.632812 -2.5 3.445312 -2.296875 3.1875 -2.140625 C 2.925781 -1.984375 2.597656 -1.90625 2.203125 -1.90625 L 1.4375 -1.90625 L 1.4375 0 L 0.75 0 L 0.75 -5.15625 Z M 2.203125 -2.578125 C 2.453125 -2.578125 2.648438 -2.628906 2.796875 -2.734375 C 2.953125 -2.835938 3.0625 -2.960938 3.125 -3.109375 C 3.195312 -3.253906 3.234375 -3.398438 3.234375 -3.546875 C 3.234375 -3.796875 3.148438 -4.015625 2.984375 -4.203125 C 2.828125 -4.398438 2.578125 -4.5 2.234375 -4.5 L 1.4375 -4.5 L 1.4375 -2.578125 Z M 2.203125 -2.578125 "/></g></g></g><g fill="#ffffff" fill-opacity="1"><g transform="translate(56.69682, 41.103675)"><g><path d="M 3.453125 -1.359375 L 1.46875 -1.359375 L 0.90625 0 L 0.234375 0 L 2.484375 -5.375 L 2.53125 -5.375 L 4.78125 0 L 3.984375 0 Z M 3.21875 -1.953125 L 2.484375 -3.84375 L 1.71875 -1.953125 Z M 3.21875 -1.953125 "/></g></g></g><g fill="#ffffff" fill-opacity="1"><g transform="translate(63.539492, 41.103675)"><g><path d="M 3.796875 -5.15625 L 3.796875 -4.5 L 2.40625 -4.5 L 2.40625 0 L 1.71875 0 L 1.71875 -4.5 L 0.359375 -4.5 L 0.359375 -5.15625 Z M 3.796875 -5.15625 "/></g></g></g><g fill="#ffffff" fill-opacity="1"><g transform="translate(69.532199, 41.103675)"><g><path d="M 3.578125 0 L 2.375 -1.90625 C 2.332031 -1.90625 2.273438 -1.90625 2.203125 -1.90625 L 1.4375 -1.90625 L 1.4375 0 L 0.75 0 L 0.75 -5.15625 L 2.125 -5.15625 C 2.476562 -5.15625 2.789062 -5.09375 3.0625 -4.96875 C 3.34375 -4.851562 3.5625 -4.671875 3.71875 -4.421875 C 3.875 -4.179688 3.953125 -3.894531 3.953125 -3.5625 C 3.953125 -3.238281 3.878906 -2.941406 3.734375 -2.671875 C 3.597656 -2.410156 3.382812 -2.210938 3.09375 -2.078125 L 4.390625 0 Z M 2.1875 -2.578125 C 2.550781 -2.578125 2.816406 -2.671875 2.984375 -2.859375 C 3.148438 -3.054688 3.234375 -3.28125 3.234375 -3.53125 C 3.234375 -3.6875 3.195312 -3.835938 3.125 -3.984375 C 3.0625 -4.128906 2.953125 -4.25 2.796875 -4.34375 C 2.648438 -4.445312 2.460938 -4.5 2.234375 -4.5 L 1.4375 -4.5 L 1.4375 -2.578125 Z M 2.1875 -2.578125 "/></g></g></g><g fill="#ffffff" fill-opacity="1"><g transform="translate(76.08203, 41.103675)"><g><path d="M 1.4375 -5.15625 L 1.4375 0 L 0.75 0 L 0.75 -5.15625 Z M 1.4375 -5.15625 "/></g></g></g><g fill="#ffffff" fill-opacity="1"><g transform="translate(80.09625, 41.103675)"><g><path d="M 4.53125 -0.390625 C 4.363281 -0.273438 4.148438 -0.171875 3.890625 -0.078125 C 3.640625 0.015625 3.367188 0.0625 3.078125 0.0625 C 2.546875 0.0625 2.078125 -0.0507812 1.671875 -0.28125 C 1.273438 -0.519531 0.96875 -0.835938 0.75 -1.234375 C 0.53125 -1.628906 0.421875 -2.066406 0.421875 -2.546875 C 0.421875 -3.054688 0.53125 -3.515625 0.75 -3.921875 C 0.96875 -4.328125 1.269531 -4.644531 1.65625 -4.875 C 2.039062 -5.101562 2.484375 -5.21875 2.984375 -5.21875 C 3.265625 -5.21875 3.53125 -5.175781 3.78125 -5.09375 C 4.039062 -5.019531 4.269531 -4.925781 4.46875 -4.8125 L 4.1875 -4.15625 C 3.789062 -4.425781 3.394531 -4.5625 3 -4.5625 C 2.664062 -4.5625 2.359375 -4.472656 2.078125 -4.296875 C 1.796875 -4.117188 1.566406 -3.878906 1.390625 -3.578125 C 1.222656 -3.273438 1.140625 -2.941406 1.140625 -2.578125 C 1.140625 -2.203125 1.21875 -1.863281 1.375 -1.5625 C 1.53125 -1.269531 1.75 -1.035156 2.03125 -0.859375 C 2.320312 -0.691406 2.65625 -0.609375 3.03125 -0.609375 C 3.5 -0.609375 3.898438 -0.738281 4.234375 -1 Z M 4.53125 -0.390625 "/></g></g></g><g fill="#ffffff" fill-opacity="1"><g transform="translate(86.888924, 41.103675)"><g><path d="M 1.421875 -2.828125 L 1.515625 -2.96875 L 3.625 -5.15625 L 4.515625 -5.15625 L 2.390625 -2.953125 L 4.640625 0 L 3.765625 0 L 1.875 -2.5 L 1.4375 -2.078125 L 1.453125 0 L 0.75 0 L 0.75 -5.15625 L 1.453125 -5.15625 L 1.453125 -3.078125 Z M 1.421875 -2.828125 "/></g></g></g><g fill="#ffffff" fill-opacity="1"><g transform="translate(93.581606, 41.103675)"><g/></g></g><g fill="#ffffff" fill-opacity="1"><g transform="translate(97.674389, 41.103675)"><g><path d="M 3.40625 -4.234375 C 3.226562 -4.335938 3.03125 -4.421875 2.8125 -4.484375 C 2.601562 -4.546875 2.410156 -4.578125 2.234375 -4.578125 C 1.953125 -4.578125 1.726562 -4.515625 1.5625 -4.390625 C 1.394531 -4.265625 1.3125 -4.09375 1.3125 -3.875 C 1.3125 -3.65625 1.40625 -3.476562 1.59375 -3.34375 C 1.789062 -3.207031 2.066406 -3.070312 2.421875 -2.9375 C 2.691406 -2.84375 2.914062 -2.738281 3.09375 -2.625 C 3.28125 -2.519531 3.429688 -2.367188 3.546875 -2.171875 C 3.671875 -1.972656 3.734375 -1.71875 3.734375 -1.40625 C 3.734375 -1.132812 3.664062 -0.882812 3.53125 -0.65625 C 3.394531 -0.4375 3.195312 -0.257812 2.9375 -0.125 C 2.6875 0 2.390625 0.0625 2.046875 0.0625 C 1.734375 0.0625 1.425781 0.0078125 1.125 -0.09375 C 0.832031 -0.195312 0.570312 -0.328125 0.34375 -0.484375 L 0.65625 -1.03125 C 0.832031 -0.894531 1.039062 -0.78125 1.28125 -0.6875 C 1.53125 -0.601562 1.765625 -0.5625 1.984375 -0.5625 C 2.265625 -0.5625 2.503906 -0.628906 2.703125 -0.765625 C 2.910156 -0.910156 3.015625 -1.125 3.015625 -1.40625 C 3.015625 -1.644531 2.925781 -1.832031 2.75 -1.96875 C 2.582031 -2.113281 2.34375 -2.25 2.03125 -2.375 C 1.738281 -2.476562 1.492188 -2.582031 1.296875 -2.6875 C 1.109375 -2.789062 0.941406 -2.9375 0.796875 -3.125 C 0.660156 -3.3125 0.59375 -3.539062 0.59375 -3.8125 C 0.59375 -4.21875 0.734375 -4.546875 1.015625 -4.796875 C 1.304688 -5.046875 1.675781 -5.175781 2.125 -5.1875 C 2.6875 -5.1875 3.203125 -5.050781 3.671875 -4.78125 Z M 3.40625 -4.234375 "/></g></g></g><g fill="#ffffff" fill-opacity="1"><g transform="translate(103.667095, 41.103675)"><g><path d="M 3.796875 -5.15625 L 3.796875 -4.5 L 2.40625 -4.5 L 2.40625 0 L 1.71875 0 L 1.71875 -4.5 L 0.359375 -4.5 L 0.359375 -5.15625 Z M 3.796875 -5.15625 "/></g></g></g><g fill="#ffffff" fill-opacity="1"><g transform="translate(109.659801, 41.103675)"><g><path d="M 0.421875 -2.578125 C 0.421875 -3.046875 0.539062 -3.484375 0.78125 -3.890625 C 1.019531 -4.296875 1.335938 -4.617188 1.734375 -4.859375 C 2.140625 -5.097656 2.582031 -5.21875 3.0625 -5.21875 C 3.53125 -5.21875 3.96875 -5.097656 4.375 -4.859375 C 4.78125 -4.617188 5.101562 -4.296875 5.34375 -3.890625 C 5.582031 -3.484375 5.703125 -3.046875 5.703125 -2.578125 C 5.703125 -2.097656 5.582031 -1.65625 5.34375 -1.25 C 5.101562 -0.851562 4.78125 -0.535156 4.375 -0.296875 C 3.96875 -0.0546875 3.53125 0.0625 3.0625 0.0625 C 2.582031 0.0625 2.140625 -0.0507812 1.734375 -0.28125 C 1.328125 -0.519531 1.003906 -0.835938 0.765625 -1.234375 C 0.535156 -1.640625 0.421875 -2.085938 0.421875 -2.578125 Z M 1.140625 -2.578125 C 1.140625 -2.222656 1.222656 -1.894531 1.390625 -1.59375 C 1.566406 -1.289062 1.800781 -1.050781 2.09375 -0.875 C 2.394531 -0.695312 2.722656 -0.609375 3.078125 -0.609375 C 3.421875 -0.609375 3.738281 -0.695312 4.03125 -0.875 C 4.332031 -1.050781 4.566406 -1.289062 4.734375 -1.59375 C 4.898438 -1.894531 4.984375 -2.222656 4.984375 -2.578125 C 4.984375 -2.929688 4.894531 -3.257812 4.71875 -3.5625 C 4.550781 -3.875 4.316406 -4.117188 4.015625 -4.296875 C 3.722656 -4.472656 3.40625 -4.5625 3.0625 -4.5625 C 2.707031 -4.5625 2.378906 -4.46875 2.078125 -4.28125 C 1.785156 -4.101562 1.554688 -3.863281 1.390625 -3.5625 C 1.222656 -3.257812 1.140625 -2.929688 1.140625 -2.578125 Z M 1.140625 -2.578125 "/></g></g></g><g fill="#ffffff" fill-opacity="1"><g transform="translate(117.616712, 41.103675)"><g><path d="M 1.421875 -2.828125 L 1.515625 -2.96875 L 3.625 -5.15625 L 4.515625 -5.15625 L 2.390625 -2.953125 L 4.640625 0 L 3.765625 0 L 1.875 -2.5 L 1.4375 -2.078125 L 1.453125 0 L 0.75 0 L 0.75 -5.15625 L 1.453125 -5.15625 L 1.453125 -3.078125 Z M 1.421875 -2.828125 "/></g></g></g><g fill="#ffffff" fill-opacity="1"><g transform="translate(124.309393, 41.103675)"><g><path d="M 4.09375 -5.15625 L 4.09375 -4.5 L 1.4375 -4.5 L 1.4375 -2.921875 L 3.8125 -2.921875 L 3.8125 -2.265625 L 1.4375 -2.265625 L 1.4375 -0.671875 L 4.203125 -0.671875 L 4.203125 0 L 0.75 0 L 0.75 -5.15625 Z M 4.09375 -5.15625 "/></g></g></g><g fill="#ffffff" fill-opacity="1"><g transform="translate(130.809226, 41.103675)"><g><path d="M 3.40625 -4.234375 C 3.226562 -4.335938 3.03125 -4.421875 2.8125 -4.484375 C 2.601562 -4.546875 2.410156 -4.578125 2.234375 -4.578125 C 1.953125 -4.578125 1.726562 -4.515625 1.5625 -4.390625 C 1.394531 -4.265625 1.3125 -4.09375 1.3125 -3.875 C 1.3125 -3.65625 1.40625 -3.476562 1.59375 -3.34375 C 1.789062 -3.207031 2.066406 -3.070312 2.421875 -2.9375 C 2.691406 -2.84375 2.914062 -2.738281 3.09375 -2.625 C 3.28125 -2.519531 3.429688 -2.367188 3.546875 -2.171875 C 3.671875 -1.972656 3.734375 -1.71875 3.734375 -1.40625 C 3.734375 -1.132812 3.664062 -0.882812 3.53125 -0.65625 C 3.394531 -0.4375 3.195312 -0.257812 2.9375 -0.125 C 2.6875 0 2.390625 0.0625 2.046875 0.0625 C 1.734375 0.0625 1.425781 0.0078125 1.125 -0.09375 C 0.832031 -0.195312 0.570312 -0.328125 0.34375 -0.484375 L 0.65625 -1.03125 C 0.832031 -0.894531 1.039062 -0.78125 1.28125 -0.6875 C 1.53125 -0.601562 1.765625 -0.5625 1.984375 -0.5625 C 2.265625 -0.5625 2.503906 -0.628906 2.703125 -0.765625 C 2.910156 -0.910156 3.015625 -1.125 3.015625 -1.40625 C 3.015625 -1.644531 2.925781 -1.832031 2.75 -1.96875 C 2.582031 -2.113281 2.34375 -2.25 2.03125 -2.375 C 1.738281 -2.476562 1.492188 -2.582031 1.296875 -2.6875 C 1.109375 -2.789062 0.941406 -2.9375 0.796875 -3.125 C 0.660156 -3.3125 0.59375 -3.539062 0.59375 -3.8125 C 0.59375 -4.21875 0.734375 -4.546875 1.015625 -4.796875 C 1.304688 -5.046875 1.675781 -5.175781 2.125 -5.1875 C 2.6875 -5.1875 3.203125 -5.050781 3.671875 -4.78125 Z M 3.40625 -4.234375 "/></g></g></g></svg>